<svg xmlns="http://www.w3.org/2000/svg" viewBox="0 0 512 512" width="32px" height="32px" style="enable-background:new 0 0 512 512" xml:space="preserve"><path style="fill:#ff507d" d="M256 8.017c-94.454 0-171.023 76.569-171.023 171.023C84.977 367.165 256 503.983 256 503.983S427.023 367.165 427.023 179.04C427.023 84.586 350.454 8.017 256 8.017zm0 256.534c-47.227 0-85.511-38.285-85.511-85.511S208.773 93.528 256 93.528s85.511 38.285 85.511 85.511-38.284 85.512-85.511 85.512z"/><path style="fill:#d23c69" d="M375.048 166.22c-5.631-54.198-48.784-98.559-102.79-105.804-20.791-2.789-40.629-.123-58.454 6.659-7.239 2.755-14.197-4.581-10.903-11.59C216.702 26.117 235.38 8.017 256 8.017c-94.454 0-171.023 76.569-171.023 171.023C84.977 367.165 256 503.983 256 503.983s-46.949-83.53-67.498-209.765c-1.135-6.97 6.081-12.293 12.338-9.019 16.502 8.635 35.24 13.557 55.159 13.557 70.344 0 126.516-60.669 119.049-132.536zM256 264.551c-47.227 0-85.511-38.285-85.511-85.511S208.773 93.528 256 93.528s85.511 38.285 85.511 85.511-38.284 85.512-85.511 85.512z"/><path d="M256 0C157.277 0 76.96 80.317 76.96 179.04c0 43.955 9.19 88.759 27.317 133.167 14.438 35.373 34.548 70.573 59.769 104.623 42.883 57.892 85.166 91.99 86.946 93.413A7.998 7.998 0 0 0 256 512a8.006 8.006 0 0 0 5.008-1.757c1.78-1.423 44.063-35.52 86.946-93.413 25.222-34.05 45.332-69.25 59.769-104.623 18.126-44.408 27.317-89.212 27.317-133.167C435.04 80.317 354.723 0 256 0zm136.976 305.911c-13.89 34.092-33.284 68.082-57.647 101.025-33.257 44.972-66.901 75.79-79.329 86.559-12.429-10.77-46.074-41.587-79.329-86.559-24.362-32.943-43.756-66.933-57.647-101.025-17.272-42.398-26.031-85.083-26.031-126.871 0-89.882 73.124-163.006 163.006-163.006S419.006 89.157 419.006 179.04c0 41.788-8.758 84.473-26.03 126.871z"/><path d="M144.553 171.509a111.612 111.612 0 0 1 32.463-71.452 111.6 111.6 0 0 1 71.452-32.463c26.702-1.789 53.133 6.01 74.422 21.972a8.017 8.017 0 0 0 9.618-12.828c-24.357-18.262-54.581-27.188-85.113-25.141-30.825 2.069-59.845 15.254-81.716 37.124s-35.054 50.89-37.124 81.716c-2.049 30.528 6.879 60.755 25.141 85.114a8.008 8.008 0 0 0 6.421 3.208 8.017 8.017 0 0 0 6.408-12.826c-15.962-21.292-23.765-47.723-21.972-74.424zM347.079 100.925a8.017 8.017 0 0 0-1.605 11.223c15.962 21.29 23.765 47.721 21.972 74.422a111.612 111.612 0 0 1-32.463 71.452 111.6 111.6 0 0 1-71.452 32.463c-26.7 1.793-53.132-6.01-74.422-21.972a8.018 8.018 0 0 0-9.618 12.828c22.069 16.545 48.955 25.43 76.518 25.43a127.64 127.64 0 0 0 90.312-37.413 127.635 127.635 0 0 0 37.124-81.716c2.049-30.528-6.879-60.755-25.141-85.114a8.02 8.02 0 0 0-11.225-1.603z"/><path d="M256 85.511c-51.572 0-93.528 41.956-93.528 93.528s41.956 93.528 93.528 93.528 93.528-41.956 93.528-93.528S307.572 85.511 256 85.511zm0 171.023c-42.731 0-77.495-34.764-77.495-77.495s34.764-77.495 77.495-77.495 77.495 34.764 77.495 77.495-34.764 77.495-77.495 77.495z"/></svg>